HIERARCHY
ROOT Hips
{
 OFFSET 0.000000 0.000000 0.000000
 CHANNELS 6 Xposition Yposition Zposition Yrotation Xrotation Zrotation
 JOINT Chest
 {
  OFFSET 0.000000 9.588913 -0.003946
  CHANNELS 3 Yrotation Xrotation Zrotation
  JOINT Chest2
  {
   OFFSET 0.000000 9.541882 0.008053
   CHANNELS 3 Yrotation Xrotation Zrotation
   JOINT Chest3
   {
    OFFSET 0.000000 9.501360 0.000000
    CHANNELS 3 Yrotation Xrotation Zrotation
    JOINT Chest4
    {
     OFFSET 0.000000 9.491660 0.000000
     CHANNELS 3 Yrotation Xrotation Zrotation
     JOINT Neck
     {
      OFFSET 0.000000 14.331917 0.000000
      CHANNELS 3 Yrotation Xrotation Zrotation
      JOINT Head
      {
       OFFSET 0.000000 8.884799 0.017034
       CHANNELS 3 Yrotation Xrotation Zrotation
       End Site
       {
        OFFSET 0.000000 16.896195 0.008993
       }
      }
     }
     JOINT RightCollar
     {
      OFFSET -2.923010 9.499495 0.000000
      CHANNELS 3 Yrotation Xrotation Zrotation
      JOINT RightShoulder
      {
       OFFSET -13.795216 0.000000 0.000000
       CHANNELS 3 Yrotation Xrotation Zrotation
       JOINT RightElbow
       {
        OFFSET -30.272209 0.000000 0.000000
        CHANNELS 3 Yrotation Xrotation Zrotation
        JOINT RightWrist
        {
         OFFSET -24.478199 0.000000 0.000000
         CHANNELS 3 Yrotation Xrotation Zrotation
         End Site
         {
          OFFSET -18.090752 0.000000 0.000000
         }
        }
       }
      }
     }
     JOINT LeftCollar
     {
      OFFSET 2.923010 9.499495 0.000000
      CHANNELS 3 Yrotation Xrotation Zrotation
      JOINT LeftShoulder
      {
       OFFSET 13.795216 0.000000 0.000000
       CHANNELS 3 Yrotation Xrotation Zrotation
       JOINT LeftElbow
       {
        OFFSET 30.272209 0.000000 0.000000
        CHANNELS 3 Yrotation Xrotation Zrotation
        JOINT LeftWrist
        {
         OFFSET 24.478199 0.000000 0.000000
         CHANNELS 3 Yrotation Xrotation Zrotation
         End Site
         {
          OFFSET 18.090752 0.000000 0.000000
         }
        }
       }
      }
     }
    }
   }
  }
 }
 JOINT RightHip
 {
  OFFSET -7.826875 0.019532 0.001973
  CHANNELS 3 Yrotation Xrotation Zrotation
  JOINT RightKnee
  {
   OFFSET 0.000000 -40.546152 -0.001885
   CHANNELS 3 Yrotation Xrotation Zrotation
   JOINT RightAnkle
   {
    OFFSET 0.000000 -39.417092 -0.003189
    CHANNELS 3 Yrotation Xrotation Zrotation
    JOINT RightToe
    {
     OFFSET 0.000000 -7.579396 17.243563
     CHANNELS 3 Yrotation Xrotation Zrotation
     End Site
     {
      OFFSET 0.000000 -1.500329 6.694466
     }
    }
   }
  }
 }
 JOINT LeftHip
 {
  OFFSET 7.826875 0.019532 0.001973
  CHANNELS 3 Yrotation Xrotation Zrotation
  JOINT LeftKnee
  {
   OFFSET 0.000000 -40.546152 -0.001885
   CHANNELS 3 Yrotation Xrotation Zrotation
   JOINT LeftAnkle
   {
    OFFSET 0.000000 -39.417092 -0.003189
    CHANNELS 3 Yrotation Xrotation Zrotation
    JOINT LeftToe
    {
     OFFSET 0.000000 -7.579396 17.243563
     CHANNELS 3 Yrotation Xrotation Zrotation
     End Site
     {
      OFFSET 0.000000 -1.500329 6.694466
     }
    }
   }
  }
 }
}
MOTION
Frames: 8
Frame Time: 0.008333
0.000000 87.345680 0.000000 0.000000 -5.767889 0.000000 0.000000 11.653876 0.000000 0.000000 -5.885988 0.000000 0.000000 -0.000000 0.000000 0.000000 -0.000000 0.000000 0.000000 12.528808 0.000000 0.000000 0.711711 0.000000 0.000000 -0.000000 0.000000 0.000000 -0.000000 0.000000 2.309063 -0.000000 0.000000 -2.309063 -0.000000 -0.000000 0.000000 -0.000000 0.000000 0.000000 0.000000 0.000000 -2.309063 0.000000 0.000000 2.309063 -0.000000 0.000000 0.000000 8.520374 0.000000 0.000000 1.905768 0.000000 -0.000000 -4.658254 0.000000 0.000000 -0.000000 0.000000 0.000000 8.520374 0.000000 0.000000 1.905768 0.000000 -0.000000 -4.658254 0.000000 0.000000 -0.000000 0.000000
25.199474 88.395218 3.633465 60.519922 -7.727921 2.397813 -5.586741 5.070639 1.054103 -0.248441 0.244688 0.060543 -0.434563 0.428331 0.105245 -5.067596 5.076254 1.032387 6.996050 14.780981 -1.114877 13.513166 -7.904996 -4.686185 8.099810 4.330998 -3.814173 11.226738 -9.379242 84.413468 58.374894 -41.136643 41.671356 31.801083 -25.996415 -16.399800 -1.996228 0.374620 -3.210941 -13.029638 -14.913607 -91.053672 -27.123099 7.182540 -41.856203 -30.360592 -14.073526 13.238578 -17.454173 8.676002 -12.100065 13.670849 -1.189198 -3.059042 13.112944 -5.651166 1.910337 0.042643 -0.485275 -0.013487 2.079310 0.019522 10.656786 14.086782 9.011090 3.795828 19.046106 3.768369 -9.061298 0.101669 0.065406 0.613521
25.267537 88.375691 3.594726 60.885460 -7.407888 2.398304 -5.958261 4.730780 0.942245 -0.251615 0.239449 0.063250 -0.440134 0.419195 0.109992 -5.137907 4.978176 1.090975 7.011800 14.796382 -1.093334 13.533143 -7.877569 -4.649876 8.084221 4.258846 -3.784313 11.148841 -9.471905 84.453993 58.740852 -40.936230 41.543787 31.444505 -25.879201 -16.919581 -2.034766 0.351557 -3.158987 -13.098323 -14.895666 -90.981689 -27.060167 7.176814 -42.062918 -30.638004 -14.173176 13.401629 -17.838645 8.465989 -12.114546 13.616447 -1.337423 -3.084207 13.100183 -5.691299 1.984272 0.076389 -0.447740 -0.011166 2.024127 -0.052746 10.468001 14.011407 8.181755 3.602797 18.935529 4.349765 -8.684061 0.050089 0.027627 0.523231
25.386368 88.357243 3.598475 60.920383 -7.368256 2.307629 -6.001001 4.687428 0.922964 -0.254881 0.234823 0.066326 -0.445849 0.411116 0.115381 -5.204783 4.887918 1.155866 7.026238 14.811005 -1.066785 13.548907 -7.852349 -4.603856 8.049013 4.179442 -3.754906 11.060831 -9.568232 84.488055 58.998862 -40.722483 41.477314 31.092431 -25.775298 -17.414257 -2.080137 0.316894 -3.110474 -13.176647 -14.858956 -90.909291 -27.037782 7.153851 -42.277262 -30.913705 -14.280253 13.580771 -17.893839 8.599463 -12.086733 13.560054 -1.504776 -3.116352 13.111845 -5.708166 2.072019 0.080418 -0.436631 -0.021794 2.253570 0.071336 10.426490 13.785422 7.726795 3.455543 19.106167 4.690850 -8.419753 -0.015919 0.026677 0.437289
25.540132 88.338030 3.633800 60.724503 -7.522958 2.135789 -5.812034 4.845902 0.984141 -0.258390 0.231024 0.069787 -0.451964 0.404465 0.121434 -5.269135 4.808374 1.226481 7.040305 14.823202 -1.037595 13.563252 -7.831982 -4.553076 8.000067 4.096387 -3.725379 10.975442 -9.655167 84.500923 59.118424 -40.535645 41.506900 30.795035 -25.690256 -17.843143 -2.124294 0.272201 -3.071498 -13.267640 -14.805681 -90.833699 -27.056106 7.102864 -42.500908 -31.180734 -14.388996 13.791467 -17.709691 8.978909 -12.009205 13.498620 -1.686059 -3.159758 13.147935 -5.711685 2.172515 0.058027 -0.443206 -0.042297 2.663941 0.272051 10.523238 13.564873 7.668602 3.445491 19.279676 4.820608 -8.490073 -0.061512 -0.026109 0.467145
25.685947 88.313135 3.677723 60.603386 -7.616421 1.851795 -5.686384 4.942697 1.148805 -0.262319 0.227880 0.073593 -0.458790 0.398942 0.128081 -5.334456 4.736324 1.301701 7.055183 14.831524 -1.010013 13.580085 -7.818491 -4.506056 7.964984 4.020134 -3.694196 10.888893 -9.723328 84.483793 59.091998 -40.418171 41.650724 30.625226 -25.605421 -18.140298 -2.154766 0.224625 -3.041454 -13.364713 -14.746394 -90.759780 -27.097173 7.026036 -42.729143 -31.427642 -14.493943 14.030238 -17.558053 9.340149 -11.803802 13.426035 -1.872754 -3.216289 13.206392 -5.747633 2.284366 0.011171 -0.422935 -0.069863 2.985178 0.323660 10.734872 13.489899 7.820757 3.601320 19.168098 4.771070 -8.857171 -0.007576 -0.069028 0.580385
25.822667 88.283674 3.714739 60.611105 -7.618474 1.533713 -5.687144 4.941801 1.339507 -0.266255 0.225114 0.077559 -0.465616 0.394071 0.135003 -5.396540 4.669851 1.378968 7.068595 14.835045 -0.986170 13.596024 -7.813562 -4.466054 7.950444 3.959367 -3.662708 10.802086 -9.769428 84.439557 58.980661 -40.376615 41.870025 30.569819 -25.503375 -18.270395 -2.169603 0.172645 -3.021445 -13.459726 -14.687822 -90.692420 -27.133926 6.940044 -42.949403 -31.641246 -14.579647 14.282614 -17.495695 9.620317 -11.544117 13.334433 -2.056921 -3.284132 13.253373 -5.729947 2.394225 -0.017977 -0.461179 -0.086704 3.237388 0.267692 10.984070 13.480855 7.972443 3.813251 18.856209 4.615398 -9.339330 0.110465 -0.061319 0.720349
25.958929 88.252478 3.739897 60.650958 -7.570827 1.247454 -5.724615 4.883158 1.502668 -0.269163 0.222585 0.081374 -0.470658 0.389630 0.141666 -5.442026 4.612252 1.454448 7.075051 14.832473 -0.964429 13.600332 -7.820357 -4.428185 7.934939 3.913381 -3.626501 10.727908 -9.798135 84.375850 58.885132 -40.364563 42.076817 30.539454 -25.410904 -18.274090 -2.179904 0.111843 -3.010913 -13.548241 -14.633551 -90.628794 -27.154283 6.866816 -43.163482 -31.823851 -14.634321 14.535026 -17.444886 9.839249 -11.299998 13.220853 -2.230333 -3.358327 13.292116 -5.727199 2.508843 -0.041384 -0.491196 -0.099775 3.562726 0.223153 11.235020 13.284733 7.950086 3.896838 18.683683 4.531006 -9.690406 0.207964 -0.062676 0.812660
